PathFileType	4	(X/Y/Z)	C:/Users/opensim2020/Desktop/walking_exp_matlab/subject01_walking04_straight_04.trc	
DataRate	CameraRate	NumFrames	NumMarkers	Units	OrigDataRate	OrigDataStartFrame	OrigNumFrames	
100.00	100.00	8	43	mm	100.00	2871	279	
Frame#	Time	LFHD			RFHD			LBHD			RBHD			C7			T10			CLAV			STRN			RBAK			LSHO			LUPA			LELB			LFRM			LWRA			LWRB			LFIN			RSHO			RUPA			RELB			RFRM			RWRA			RWRB			RFIN			LASI			RASI			LPSI			RPSI			LTHI			LKNE			LTIB			LANK			LHEE			LTOE			RTHI			RKNE			RTIB			RANK			RHEE			RTOE			*39			*40			*41			*42			
		X1	Y1	Z1	X2	Y2	Z2	X3	Y3	Z3	X4	Y4	Z4	X5	Y5	Z5	X6	Y6	Z6	X7	Y7	Z7	X8	Y8	Z8	X9	Y9	Z9	X10	Y10	Z10	X11	Y11	Z11	X12	Y12	Z12	X13	Y13	Z13	X14	Y14	Z14	X15	Y15	Z15	X16	Y16	Z16	X17	Y17	Z17	X18	Y18	Z18	X19	Y19	Z19	X20	Y20	Z20	X21	Y21	Z21	X22	Y22	Z22	X23	Y23	Z23	X24	Y24	Z24	X25	Y25	Z25	X26	Y26	Z26	X27	Y27	Z27	X28	Y28	Z28	X29	Y29	Z29	X30	Y30	Z30	X31	Y31	Z31	X32	Y32	Z32	X33	Y33	Z33	X34	Y34	Z34	X35	Y35	Z35	X36	Y36	Z36	X37	Y37	Z37	X38	Y38	Z38	X39	Y39	Z39	X40	Y40	Z40	X41	Y41	Z41	X42	Y42	Z42	X43	Y43	Z43	

175	1.740	1523.11426	200.32283	1662.25378	1411.82336	175.20824	1669.38257	1502.74731	317.23959	1621.06482	1383.44958	293.69943	1627.55652	1456.63037	354.91922	1423.95020	1438.45313	381.11194	1130.57019	1460.20813	209.54501	1359.59534	1460.60071	161.41830	1208.16199	1367.25183	400.24411	1231.13538	1620.08179	277.66312	1380.14233	1695.14893	312.99344	1191.91992	1686.22583	334.79517	1044.41016	1707.60095	312.78156	933.16302	1683.60229	253.14900	808.25323	1710.06470	308.17551	810.62384	1718.20459	268.16684	736.54077	1307.49780	269.31155	1392.46851	1193.60071	311.11121	1196.20837	1185.46106	300.23376	1069.35730	1165.63232	246.50607	957.00970	1207.46484	151.48933	858.65833	1160.13354	184.27802	850.62921	1173.41663	133.87656	782.97302	1543.11804	199.21170	928.63171	1326.84851	207.74942	925.69946	1498.26111	387.88620	939.82874	1353.18542	390.27484	941.94312	1591.38184	172.59628	605.60950	1568.36243	152.30649	474.60837	1578.72168	186.96710	286.74161	1525.66125	204.45328	70.50014	1473.96533	250.10843	40.44684	1526.72974	58.85803	36.72387	1259.99670	262.42853	588.91821	1272.86646	272.10281	431.55414	1275.81140	426.51624	346.01044	1325.66589	583.36377	214.83817	1382.83911	628.27155	235.71861	1334.34314	565.46777	68.78653	1433.83179	188.92435	1703.00769	-3101.91016	1973.16370	1023.40002	-3140.66040	2012.56445	1022.02618			 
176	1.750	1524.38782	189.89839	1662.99487	1413.06665	164.79939	1670.20544	1504.00317	306.83658	1621.91821	1384.71509	283.34702	1628.50989	1457.93896	344.64832	1425.00513	1440.10596	371.41656	1131.64587	1461.09363	199.38992	1360.37695	1461.43274	151.59038	1208.71094	1368.99011	390.65433	1232.15784	1621.11780	266.88736	1381.18933	1696.77771	300.56912	1192.93860	1688.70667	320.75043	1044.91931	1710.30420	296.37262	934.10571	1686.46753	234.04787	810.46423	1713.14136	289.06558	811.78265	1721.63037	247.60283	738.86310	1308.49988	259.42438	1393.14917	1195.14087	302.40103	1196.86365	1188.04675	292.68091	1069.72571	1167.51111	241.29221	956.41382	1208.07886	147.40875	856.52570	1161.18042	181.18359	848.90302	1173.85193	131.77045	780.54297	1544.23499	189.61534	929.13239	1327.86914	198.16559	926.98474	1499.52295	378.38272	940.20978	1354.60059	380.83609	941.64087	1593.03088	165.56995	605.43097	1569.54797	147.67882	473.69675	1579.19763	185.00307	286.38388	1525.61694	204.27411	70.52644	1473.89832	250.06044	40.50001	1526.96729	58.58149	36.57788	1260.86682	245.87392	590.23328	1273.53064	251.26007	433.04712	1276.68408	405.83612	348.62457	1327.50745	565.23383	221.02823	1386.45728	609.03955	240.64665	1330.74744	548.93958	74.77937	1435.16199	178.24530	1703.84241	-3101.83032	1973.20093	1023.48145	-3140.52124	2012.61462	1021.99463			 
177	1.760	1525.38525	179.31747	1663.65100	1414.05273	154.39185	1670.82971	1505.14929	296.43027	1622.79272	1385.79785	272.99234	1629.37317	1459.19043	334.46585	1426.00488	1441.75659	361.88101	1132.74780	1461.83203	189.35735	1361.00500	1462.19446	141.89137	1209.27563	1370.90564	381.09152	1233.12292	1621.99622	256.10764	1382.13098	1698.59875	287.98560	1194.07910	1691.05750	306.73083	1045.36096	1713.06714	279.95004	935.18744	1689.48340	214.78174	812.92896	1716.15063	269.81400	813.07391	1724.75342	226.46466	741.18567	1309.53455	249.76865	1393.87500	1196.75952	293.62344	1197.32813	1190.55151	285.14166	1070.10352	1169.43237	236.04417	955.96338	1208.49121	143.28305	854.39203	1162.33557	178.60638	847.51886	1174.07886	129.80956	778.13788	1545.44019	179.00838	929.85938	1328.59180	188.21173	928.37903	1500.67639	368.98984	940.60028	1355.85400	371.40567	941.35327	1593.82788	161.03156	604.44427	1570.68201	143.32469	472.83215	1579.67346	182.77840	285.93491	1525.57385	204.09039	70.55199	1473.60803	249.68077	40.58210	1527.21997	58.18714	36.27741	1261.59790	229.74612	591.60913	1274.21667	230.46242	434.63617	1277.13989	385.08151	350.96198	1329.37183	546.14807	226.42125	1390.14075	589.39349	244.36829	1326.77893	529.35455	80.38954	1436.22693	167.73459	1704.58374	-3101.91016	1973.18237	1023.50922	-3140.56763	2012.61145	1022.11920			 
178	1.770	1526.31250	168.79143	1664.30042	1414.94214	143.88625	1671.47424	1506.08606	285.98547	1623.62439	1386.72437	262.60150	1630.18848	1460.35339	324.37424	1426.91370	1443.34241	352.48636	1133.69043	1462.53125	179.31412	1361.65625	1462.93372	132.27872	1209.71436	1372.84375	371.65585	1233.92871	1622.81738	245.39326	1383.04004	1700.16516	275.46460	1195.13464	1693.58594	292.87741	1045.97986	1715.84607	263.50455	936.36279	1692.63611	195.33464	815.81537	1719.20667	250.32248	814.59442	1728.02478	205.23444	743.85443	1310.41772	240.00175	1394.36108	1198.51636	284.89087	1197.69189	1192.98523	277.68527	1070.48669	1171.15015	230.97646	955.63391	1208.71619	139.51218	852.46619	1163.10486	175.13486	846.00031	1174.08789	127.90021	775.90112	1546.45386	171.36557	929.62494	1329.42419	178.54752	929.63428	1501.60376	359.62479	940.94446	1356.98059	362.03262	941.12280	1594.93762	154.99663	603.78302	1571.61060	139.12624	471.97037	1580.14771	180.01076	285.56171	1525.47131	203.56851	70.47598	1473.62805	249.47141	40.89417	1527.40430	57.78296	35.95046	1262.31970	213.62581	593.36725	1274.85815	209.81390	436.92419	1278.24097	364.10373	353.49261	1331.64722	526.15839	230.41841	1393.27246	569.26672	246.50356	1323.38489	508.44699	84.97639	1437.03137	157.30571	1705.14673	-3101.96680	1973.18896	1023.41028	-3140.67285	2012.58655	1022.05554			 
179	1.780	1527.02063	158.23988	1664.85425	1415.54968	133.46526	1671.89783	1506.89807	275.52716	1624.47620	1387.88916	252.44989	1630.93835	1461.46045	314.47836	1427.75769	1444.82373	343.16705	1134.59180	1463.17346	169.37875	1362.19556	1463.64221	122.66469	1210.09192	1374.76050	362.24796	1234.64246	1623.55371	234.75626	1383.88892	1701.77625	262.95261	1196.24243	1696.16943	279.07526	1046.65039	1718.78503	246.98477	937.72443	1695.74622	175.80112	818.88672	1722.06128	230.76784	816.26563	1731.48853	183.90730	746.88879	1311.15210	230.52190	1394.86633	1200.22095	276.64651	1197.93372	1195.14819	270.23737	1070.86328	1172.74561	225.89665	955.34735	1208.87109	136.10837	850.46991	1163.74036	172.28951	844.76892	1173.88208	126.06149	773.89502	1547.64490	162.18829	930.09448	1330.39453	168.83247	930.93103	1502.38818	350.38068	941.25116	1357.79260	352.40427	941.08185	1595.65710	149.25919	603.04846	1572.25830	134.94968	471.17584	1580.60022	177.13676	285.45447	1525.37878	203.12926	70.52924	1473.64929	249.33090	41.11953	1527.43469	57.11755	35.62184	1262.97656	197.29593	595.23584	1275.53430	189.28587	439.17789	1279.80652	343.46494	355.92432	1333.65771	505.32916	233.05685	1395.85767	548.72168	247.43066	1321.02722	485.80624	88.41821	1437.69580	146.68982	1705.65796	-3101.92236	1973.17761	1023.42542	-3140.65723	2012.50793	1021.94940			 
180	1.790	1527.49829	147.61591	1665.35938	1416.03809	122.87668	1672.23242	1507.59070	265.02969	1625.32300	1388.19019	241.84032	1631.56653	1462.55603	304.47693	1428.55688	1446.21277	333.91763	1135.38318	1463.72778	159.52400	1362.66492	1464.32642	113.23356	1210.40857	1376.59509	352.85538	1235.24390	1624.22656	224.24165	1384.72144	1703.23743	250.53487	1197.34509	1698.77051	265.33630	1047.27344	1721.46118	230.60254	939.07080	1698.90930	156.12393	822.16473	1725.23193	211.01149	818.16278	1734.71509	162.30098	750.13983	1311.89404	221.16783	1395.28406	1201.99255	268.51862	1198.17004	1197.19653	262.94540	1071.25769	1174.18274	220.92790	955.36035	1208.77307	132.44856	848.80084	1164.18628	169.42737	843.71997	1173.47864	124.39220	772.01501	1548.95532	153.02362	930.49487	1331.51196	158.98880	932.15179	1503.02905	341.13654	941.53735	1358.48145	342.76450	941.38068	1596.22522	143.63698	602.47955	1572.67358	130.62605	470.47839	1580.66333	174.38368	284.89584	1525.27832	202.73398	70.55978	1473.58862	249.17097	41.39227	1527.57959	56.66796	35.33744	1263.52332	180.75439	597.20490	1276.40430	169.11911	441.62473	1281.35645	322.78699	358.05725	1335.43433	484.10120	234.54865	1398.04883	528.16400	247.15732	1319.02905	461.79971	90.78616	1438.10156	136.00401	1706.00952	-3101.83960	1973.15723	1023.42474	-3140.71826	2012.50537	1021.90601			 
181	1.800	1527.86218	136.95648	1665.85229	1416.33606	112.36195	1672.40112	1508.19983	254.54198	1626.17798	1388.76929	231.48680	1632.15747	1463.48328	294.64587	1429.29041	1447.57227	324.58951	1136.14709	1464.24878	149.75500	1363.07654	1465.00781	103.82896	1210.73462	1378.31812	343.49725	1235.80444	1624.93188	213.88051	1385.51294	1704.70154	238.25478	1198.36206	1701.37915	251.67377	1047.95264	1724.23877	214.14276	940.54785	1702.03149	136.39850	825.79694	1728.18286	191.22076	820.27063	1738.01318	140.60017	753.68121	1312.64221	211.85905	1395.72717	1203.62732	260.66763	1198.28967	1199.09448	255.76468	1071.67212	1175.48572	215.92546	955.40778	1208.46265	128.59602	847.35974	1164.43872	166.64851	842.88751	1172.99854	122.47478	770.49469	1550.50464	143.69740	931.04944	1332.71228	149.23476	933.22852	1503.50342	331.92102	941.75842	1358.91626	333.02814	941.82013	1596.32483	137.84492	602.15491	1573.02075	126.35650	469.71094	1580.91125	171.76395	284.52435	1525.09717	202.29901	70.52287	1473.56030	249.06012	41.63898	1527.58313	56.26350	34.84245	1264.15503	164.26218	599.18494	1277.22229	149.12897	444.08713	1283.32581	302.33389	359.96780	1336.76501	462.45834	234.57213	1399.74463	507.25778	245.68787	1317.97290	436.45389	92.50882	1438.41418	125.36526	1706.32751	-3101.95093	1973.28113	1023.39935	-3140.79907	2012.61755	1022.18658			 
182	1.810	1528.08789	126.21716	1666.26794	1416.47852	101.87080	1672.55054	1508.62878	244.01619	1626.99609	1389.17578	221.13387	1632.66785	1464.49719	284.85995	1430.02917	1448.58618	315.10846	1136.70300	1464.83643	140.05200	1363.54041	1465.74243	94.47260	1211.02478	1379.94214	334.27521	1236.32373	1625.59326	203.65659	1386.24524	1706.09558	226.13748	1199.40454	1703.91553	238.06592	1048.59241	1726.93298	197.67642	942.13812	1705.01990	116.67418	829.61633	1730.99292	171.34966	822.49591	1741.36829	119.06768	757.71393	1313.27380	202.83298	1396.11963	1205.20239	252.91258	1198.44800	1200.87671	248.62596	1072.07947	1176.59985	210.85387	955.45984	1208.19299	125.31276	845.80396	1164.92480	163.72560	842.17102	1172.40259	120.64429	769.01459	1551.97827	134.66888	931.57788	1334.07153	139.38667	934.34839	1503.79504	322.73254	941.98425	1359.10999	323.10699	942.38953	1596.87952	132.05495	601.65314	1573.43958	122.12023	469.05222	1580.97888	169.33678	284.00558	1525.00854	201.97141	70.54066	1473.45337	248.87204	41.79415	1527.72998	56.04639	34.57913	1264.84412	147.75990	601.26086	1278.20361	129.64621	446.54434	1285.28503	282.07822	361.28738	1337.90527	440.44443	233.47411	1400.90234	486.22229	242.77505	1317.63928	409.50717	93.13749	1438.55957	114.70421	1706.57300	-3101.92798	1973.19702	1023.19849	-3140.56494	2012.55664	1021.89996			 
